<?xml version="1.0" standalone="no"?><!DOCTYPE svg PUBLIC "-//W3C//DTD SVG 1.1//EN" "http://www.w3.org/Graphics/SVG/1.1/DTD/svg11.dtd"><svg t="1673507591389" class="icon" viewBox="0 0 1376 1024" version="1.1" xmlns="http://www.w3.org/2000/svg" p-id="3204" xmlns:xlink="http://www.w3.org/1999/xlink" width="268.75" height="200"><path d="M281.617 113.302C173.934 208.962 110.125 354.72 110.125 512c0 72.246 13.395 142.436 38.97 207.035A39.55 39.55 0 1 0 222.66 689.9 482.704 482.704 0 0 1 189.227 512c0-134.947 54.369-259.11 144.914-339.583a39.55 39.55 0 0 0-52.524-59.089z m-79.47 706.403a486.264 486.264 0 0 0 78.073 89.78 39.55 39.55 0 0 0 52.787-58.904 407.188 407.188 0 0 1-65.338-75.2 39.55 39.55 0 0 0-65.523 44.324z" p-id="3205"></path><path d="M389.354 269.606a39.55 39.55 0 0 1 47.935 62.913C380.916 375.497 347.43 441.072 347.43 512c0 70.954 33.487 136.53 89.886 179.481a39.55 39.55 0 0 1-47.935 62.913C313.627 696.702 268.328 608.029 268.328 512c0-96.03 45.299-184.702 121.026-242.394z m519.881 7.489a39.55 39.55 0 0 1 55.424-7.489c75.753 57.692 121.052 146.365 121.052 242.394 0 96.03-45.299 184.702-121.025 242.394a39.55 39.55 0 0 1-47.936-62.913c56.373-42.978 89.86-108.553 89.86-179.481 0-70.954-33.487-136.53-89.886-179.481a39.55 39.55 0 0 1-7.489-55.424z" p-id="3206"></path><path d="M1072.422 910.698c107.683-95.66 171.492-241.418 171.492-398.698 0-72.246-13.394-142.436-38.97-207.035a39.55 39.55 0 1 0-73.565 29.136A482.704 482.704 0 0 1 1164.813 512c0 134.947-54.37 259.11-144.915 339.583a39.55 39.55 0 1 0 52.524 59.115z m79.47-706.403a486.264 486.264 0 0 0-78.073-89.78 39.55 39.55 0 0 0-52.787 58.904 407.188 407.188 0 0 1 65.338 75.2 39.55 39.55 0 1 0 65.523-44.324zM677.02 314.246a197.754 197.754 0 1 0 0 395.508 197.754 197.754 0 0 0 0-395.508z m0 79.102a118.652 118.652 0 1 1 0 237.304 118.652 118.652 0 0 1 0-237.304z" p-id="3207"></path></svg>