<?xml version="1.0" standalone="no"?><!DOCTYPE svg PUBLIC "-//W3C//DTD SVG 1.1//EN" "http://www.w3.org/Graphics/SVG/1.1/DTD/svg11.dtd"><svg t="1673502294958" class="icon" viewBox="0 0 1024 1024" version="1.1" xmlns="http://www.w3.org/2000/svg" p-id="1467" xmlns:xlink="http://www.w3.org/1999/xlink" width="200" height="200"><path d="M620.8 710.4l-108.8 64-108.8-64V960H128V569.6c0-76.8 64-140.8 134.4-140.8s134.4 64 134.4 140.8V640l108.8 64 108.8-64V569.6c0-76.8 64-140.8 134.4-140.8s134.4 64 134.4 140.8V960H620.8v-249.6z m-435.2 192h166.4V569.6c0-44.8-38.4-83.2-83.2-83.2s-83.2 38.4-83.2 83.2v332.8z m492.8 0h166.4V569.6c0-44.8-38.4-83.2-83.2-83.2s-83.2 38.4-83.2 83.2v332.8z m83.2-499.2c-76.8 0-134.4-64-134.4-140.8s64-140.8 134.4-140.8S896 192 896 268.8s-64 134.4-134.4 134.4z m-492.8 0C192 403.2 128 345.6 128 268.8S192 128 268.8 128s134.4 64 134.4 140.8-64 134.4-134.4 134.4z m0-51.2c44.8 0 83.2-38.4 83.2-83.2 0-44.8-38.4-83.2-83.2-83.2s-83.2 38.4-83.2 83.2c0 44.8 32 83.2 83.2 83.2z m492.8 0c44.8 0 83.2-38.4 83.2-83.2 0-44.8-38.4-83.2-83.2-83.2s-83.2 38.4-83.2 83.2c0 44.8 32 83.2 83.2 83.2z" p-id="1468"></path></svg>