<?xml version="1.0" standalone="no"?><!DOCTYPE svg PUBLIC "-//W3C//DTD SVG 1.1//EN" "http://www.w3.org/Graphics/SVG/1.1/DTD/svg11.dtd"><svg t="1673507585214" class="icon" viewBox="0 0 1024 1024" version="1.1" xmlns="http://www.w3.org/2000/svg" p-id="2928" xmlns:xlink="http://www.w3.org/1999/xlink" width="200" height="200"><path d="M779.1 534.3c-135 0-244.9 109.8-244.9 244.9S644.1 1024 779.1 1024 1024 914.2 1024 779.1 914.2 534.3 779.1 534.3z m0 445.2c-110.5 0-200.3-89.9-200.3-200.3s89.9-200.3 200.3-200.3 200.3 89.9 200.3 200.3-89.8 200.3-200.3 200.3z" p-id="2929"></path><path d="M894.9 684.2l-161 161-70.6-70.6c-8.7-8.7-22.8-8.7-31.5 0s-8.7 22.8 0 31.5l75.7 75.7c7 7 16.4 10.9 26.4 10.9s19.3-3.9 26.4-10.9l166.1-166.1c8.7-8.7 8.7-22.8 0-31.5s-22.8-8.7-31.5 0zM512 979.5H75.7c-17.2 0-31.2-14-31.2-31.2V187c0-17.2 14-31.2 31.2-31.2h102.4c12.3 0 22.3-10 22.3-22.3s-10-22.3-22.3-22.3H75.7C34 111.3 0 145.3 0 187v761.3C0 990 34 1024 75.7 1024H512c12.3 0 22.3-10 22.3-22.3s-10-22.2-22.3-22.2zM948.3 111.3H841.5c-12.3 0-22.3 10-22.3 22.3s10 22.3 22.3 22.3h106.9c17.2 0 31.2 14 31.2 31.2v325c0 12.3 10 22.3 22.3 22.3s22.3-10 22.3-22.3V187c-0.2-41.7-34.2-75.7-75.9-75.7zM289.4 267.1c12.3 0 22.3-10 22.3-22.3V22.3c0-12.3-10-22.3-22.3-22.3s-22.3 10-22.3 22.3v222.6c0 12.3 10 22.2 22.3 22.2zM734.6 267.1c12.3 0 22.3-10 22.3-22.3V22.3c0-12.3-10-22.3-22.3-22.3s-22.3 10-22.3 22.3v222.6c0 12.3 10 22.2 22.3 22.2zM400.7 155.8h222.6c12.3 0 22.3-10 22.3-22.3s-10-22.3-22.3-22.3H400.7c-12.3 0-22.3 10-22.3 22.3s10 22.3 22.3 22.3z" p-id="2930"></path><path d="M142.5 377.9c0 12.3 10 22.3 22.3 22.3h489.7c12.3 0 22.3-10 22.3-22.3s-10-22.3-22.3-22.3H164.7c-12.3 0.1-22.2 10-22.2 22.3zM498.6 542.7c0-12.3-10-22.3-22.3-22.3H164.7c-12.3 0-22.3 10-22.3 22.3s10 22.3 22.3 22.3h311.7c12.3-0.1 22.2-10 22.2-22.3zM164.7 685.1c-12.3 0-22.3 10-22.3 22.3s10 22.3 22.3 22.3h133.6c12.3 0 22.3-10 22.3-22.3s-10-22.3-22.3-22.3H164.7z" p-id="2931"></path></svg>